<svg id="Layer_1" data-name="Layer 1" xmlns="http://www.w3.org/2000/svg" viewBox="0 0 205.01 205.01"><defs><style>.cls-2{fill:#eab308;}</style></defs><path class="cls-2" d="M107.2,1.06c5.77-2.39,25,0,25,0a27.2,27.2,0,0,1,19.23,8l44.43,44.43a27.2,27.2,0,0,1,8,19.23s2.41,19.43,0,25.26a.32.32,0,0,1-.14.14c-5.77,2.39-25,0-25,0a27.2,27.2,0,0,1-19.23-8L115,45.7a27.2,27.2,0,0,1-8-19.23S104.64,7,107.06,1.2A.32.32,0,0,1,107.2,1.06Z"/><path class="cls-2" d="M1.34,106.92c5.77-2.39,25,0,25,0a27.2,27.2,0,0,1,19.23,8L90,159.31a27.2,27.2,0,0,1,8,19.23s2.42,19.43,0,25.27a.32.32,0,0,1-.14.14c-5.77,2.39-18.73,0-25,0a27.2,27.2,0,0,1-19.23-8L9.17,151.55a27.2,27.2,0,0,1-8-19.23s-2.41-19.43,0-25.26A.32.32,0,0,1,1.34,106.92Z"/><path class="cls-2" d="M204,107.2c2.39,5.77,0,25,0,25a27.2,27.2,0,0,1-8,19.23l-44.43,44.43a27.2,27.2,0,0,1-19.23,8s-19.43,2.41-25.26,0a.32.32,0,0,1-.14-.14c-2.39-5.77,0-25,0-25a27.2,27.2,0,0,1,8-19.23L159.31,115a27.2,27.2,0,0,1,19.23-8s19.43-2.42,25.27,0A.32.32,0,0,1,204,107.2Z"/><path class="cls-2" d="M98.09,1.34c2.39,5.77,0,25,0,25a27.2,27.2,0,0,1-8,19.23L45.7,90a27.2,27.2,0,0,1-19.23,8S7,100.37,1.2,98a.32.32,0,0,1-.14-.14c-2.39-5.77,0-25,0-25A27.2,27.2,0,0,1,9,53.6L53.46,9.17a27.2,27.2,0,0,1,19.23-8S92.12-1.21,98,1.2A.32.32,0,0,1,98.09,1.34Z"/></svg>