<svg id="Layer_1" data-name="Layer 1" xmlns="http://www.w3.org/2000/svg" viewBox="0 0 1075.31 159.28"><defs><style>.cls-1{fill:#1a1a1a;}.cls-2{fill:#cb3727;}</style></defs><path class="cls-1" d="M239.34,125h142L363,158.81H180.73l-5.5-6.56,1.55-1s3.65-2.44,8.63-9.06h0L201,87,220.8,16.2,217.66.55h57.06l21.5,0v0h48.12L415.11.46l-39.66,49-.31-.71C371,39.33,365,34.17,358.59,34.17H265l-4.72,16.74-3.37,11.91c2.93,0,4.54,0,12.56,0s15.19,0,22.41,0c26.25.17,47.69,0,49.58,0L323.1,96.53H247.38Z"/><path class="cls-1" d="M474.91.57l-27.09,96-17.57,62.26H381.17l-5.5-6.55,1.55-1s3.81-2.75,8.65-9.07l35.47-126L418.21.57Z"/><path class="cls-1" d="M648.29,102.34,632.16,158.8h-189l28.32-48.6C475.57,119.59,481.62,125,488,125H589.26c2,0,3.93-2.17,4.91-5.65l1.35-4.3L476.85,70c-.37-.16-2.8-1.28-4.17-6a24.13,24.13,0,0,1-.46-10.13l.39-1.51,4.23-14.88,6-21.14,0-.1L479.63.57H677.52L638,49.44l-.31-.71c-4.13-9.39-10.18-14.81-16.55-14.81H530.54c-2,0-3.93,2.17-4.92,5.65l-1.17,4.17L630.34,80l13.6,4.65C648.12,86.11,650.35,95.11,648.29,102.34Z"/><path class="cls-1" d="M874.41,15.75l-5.31,18.9,0,.07c-11.1,38.5-31.16,62.09-52.81,62.09H740.75l0-.12H711L703,125h.05l-9.45,33.8H644.42l-5.5-6.55,1.55-1s3.66-2.43,8.64-9.06l35.48-126L681.46.56H870.19c1.77,0,3.36,1.89,4.24,5.07A19.3,19.3,0,0,1,874.41,15.75ZM819.5,34.64h-91l-1.81,6.41,0,.13-2.41,8.54-3.65,13,75.48.16c2.68-.42,7.74-1.92,13.1-8.16C814.94,48,818.1,39.17,819.5,34.64Z"/><path class="cls-1" d="M1074.62,15.74l-9.86,35-17.12,60.81-4.44,15.78-8.85,31.47h-49.1l-5.63-6.56,1.56-1s3.74-2.52,8.84-9.34l4.55-16.18,8.15-29H911.21l-17.49,62.11H844.63l-5.5-6.56,1.55-1s3.65-2.44,8.64-9.06l35.48-126L881.67.55H1070.4c1.78,0,3.37,1.89,4.25,5.07A19.41,19.41,0,0,1,1074.62,15.74Zm-55.18,19.8c-.15-.56-.44-.9-.75-.9h-90l-7.91,28.07,91.46.2,7.19-25.54A3.55,3.55,0,0,0,1019.44,35.54Z"/><path class="cls-2" d="M83.28.83c4.49-1.86,19.41,0,19.41,0a21.12,21.12,0,0,1,15,6.19l34.51,34.51a21.1,21.1,0,0,1,6.19,14.94s1.88,15.1,0,19.63a.2.2,0,0,1-.11.11c-4.48,1.86-19.41,0-19.41,0A21.1,21.1,0,0,1,123.88,70L89.36,35.51a21.17,21.17,0,0,1-6.19-14.95S81.3,5.47,83.17.93A.35.35,0,0,1,83.28.83Z"/><path class="cls-2" d="M1,83.06c4.49-1.85,19.41,0,19.41,0a21.17,21.17,0,0,1,15,6.19l34.51,34.52a21.1,21.1,0,0,1,6.19,14.94s1.88,15.1,0,19.63a.2.2,0,0,1-.11.11c-4.48,1.86-14.55,0-19.41,0a21.14,21.14,0,0,1-14.94-6.19L7.12,117.75a21.17,21.17,0,0,1-6.19-15S-.94,87.71.93,83.17A.57.57,0,0,1,1,83.06Z"/><path class="cls-2" d="M158.45,83.28c1.86,4.49,0,19.41,0,19.41a21.17,21.17,0,0,1-6.19,15l-34.51,34.51a21.12,21.12,0,0,1-15,6.19s-15.09,1.88-19.63,0a.29.29,0,0,1-.11-.11c-1.85-4.48,0-19.41,0-19.41a21.14,21.14,0,0,1,6.19-14.94l34.52-34.52a21.14,21.14,0,0,1,14.94-6.19s15.1-1.87,19.63,0A.29.29,0,0,1,158.45,83.28Z"/><path class="cls-2" d="M76.21,1c1.86,4.49,0,19.41,0,19.41A21.12,21.12,0,0,1,70,35.4L35.51,69.91A21.12,21.12,0,0,1,20.56,76.1S5.47,78,.93,76.1A.22.22,0,0,1,.83,76C-1,71.51.83,56.58.83,56.58A21.1,21.1,0,0,1,7,41.64L41.53,7.12A21.14,21.14,0,0,1,56.47.93S71.57-.94,76.1.93A.29.29,0,0,1,76.21,1Z"/></svg>