<svg version="1.2" xmlns="http://www.w3.org/2000/svg" viewBox="0 0 901 159" width="901" height="159">
	<title>logo-svg</title>
	<style>
		.s0 { fill: #171717 } 
	</style>
	<path id="Layer" class="s0" d="m64.2 124.9h142l-18.3 33.8h-182.3l-5.5-6.6 1.5-1c0 0 3.7-2.4 8.7-9l15.5-55.2 19.9-70.8-3.2-15.7h57.1c6.8 0 14 0 21.5 0h48.1l70.8-0.1-39.7 49-0.3-0.7c-4.1-9.4-10.2-14.6-16.5-14.6h-93.7l-4.7 16.7-3.3 11.9c2.9 0 4.5 0 12.5 0 8 0 15.2 0 22.4 0 26.3 0.2 47.7 0 49.6 0l-18.3 33.8h-75.7z"/>
	<path id="Layer" class="s0" d="m299.8 0.4l-27.1 96-17.6 62.3h-49.1l-5.5-6.6 1.6-1c0 0 3.8-2.7 8.6-9.1l35.5-126-3.1-15.6z"/>
	<path id="Layer" class="s0" d="m473.2 102.2l-16.2 56.5h-189l28.3-48.6c4.1 9.4 10.2 14.8 16.6 14.8h101.2c2 0 3.9-2.2 4.9-5.7l1.4-4.3-118.7-45.1c-0.3-0.2-2.8-1.3-4.1-6q-0.4-1.2-0.6-2.5-0.2-1.2-0.2-2.5-0.1-1.3 0-2.6 0.1-1.2 0.3-2.5l0.4-1.5 4.2-14.9 6-21.1v-0.1l-3.2-15.7h7.6 49.2 94.1 47l-39.6 48.9-0.3-0.7c-4.1-9.4-10.2-14.8-16.5-14.8h-90.6c-2 0-3.9 2.2-4.9 5.6l-1.2 4.2 105.9 36.3 13.6 4.6c4.2 1.5 6.4 10.5 4.4 17.7z"/>
	<path id="Layer" fill-rule="evenodd" class="s0" d="m699.3 15.6l-5.3 18.9v0.1c-11.1 38.5-31.1 62.1-52.8 62.1h-75.6v-0.1h-29.7l-8 28.3h0.1l-9.5 33.8h-49.2l-5.5-6.6 1.6-1c0 0 3.6-2.4 8.6-9.1l35.5-126-3.2-15.6h188.8c1.7 0 3.3 1.9 4.2 5.1q0.3 1.2 0.5 2.5 0.2 1.3 0.2 2.5 0 1.3-0.2 2.6-0.2 1.3-0.5 2.5zm-54.9 18.9h-91l-1.8 6.4v0.1l-2.4 8.6-3.7 13 75.5 0.1c2.7-0.4 7.7-1.9 13.1-8.1 5.7-6.8 8.9-15.6 10.3-20.1z"/>
	<path id="Layer" fill-rule="evenodd" class="s0" d="m899.5 15.6l-9.9 35-17.1 60.8-4.4 15.8-8.9 31.5h-49.1l-5.6-6.6 1.5-1c0 0 3.8-2.5 8.9-9.3l4.5-16.2 8.2-29h-91.5l-17.5 62.1h-49.1l-5.5-6.6 1.5-1c0 0 3.7-2.4 8.7-9l35.5-126.1-3.2-15.6h188.8c1.7 0 3.3 1.9 4.2 5.1q0.4 1.2 0.5 2.5 0.2 1.2 0.2 2.5 0 1.3-0.2 2.6-0.2 1.3-0.5 2.5zm-55.2 19.8c-0.1-0.6-0.4-0.9-0.8-0.9h-90l-7.9 28.1 91.5 0.2 7.2-25.6q0.1-0.2 0.1-0.4 0-0.2 0-0.5 0-0.2 0-0.4 0-0.3-0.1-0.5z"/>
</svg>