<svg id="Layer_1" data-name="Layer 1" xmlns="http://www.w3.org/2000/svg" viewBox="0 0 1118.18 205.01"><defs><style>.cls-1{fill:#171717;}.cls-2{fill:#eab308;}</style></defs><path class="cls-1" d="M282.2,147.87h142L405.9,181.68H223.59l-5.5-6.56,1.55-1s3.66-2.44,8.64-9.06v0l15.53-55.16,19.85-70.79-3.15-15.66h57.06c6.83,0,14.06,0,21.51,0v0H387.2L458,23.33l-39.66,49-.32-.7C413.87,62.2,407.82,57,401.45,57H307.84l-4.72,16.74-3.36,11.91c2.93,0,4.53,0,12.56,0s15.18,0,22.41,0c26.25.17,47.68,0,49.58,0L366,119.4H290.25Z"/><path class="cls-1" d="M517.77,23.43l-27.08,96-17.58,62.26H424l-5.51-6.56,1.56-1s3.81-2.75,8.64-9.08L464.2,39l-3.12-15.6Z"/><path class="cls-1" d="M691.16,125.21,675,181.67H486l28.31-48.6c4.14,9.39,10.18,14.81,16.55,14.81H632.12c2,0,3.93-2.17,4.92-5.65l1.35-4.3L519.72,92.82c-.37-.17-2.8-1.29-4.17-6a23.76,23.76,0,0,1-.46-10.13l.38-1.52,4.24-14.87,5.95-21.14,0-.1L522.5,23.44h7.59v0l49.16,0,94.14,0h47L680.84,72.31l-.31-.71c-4.14-9.39-10.19-14.81-16.56-14.81H573.41c-2,0-3.93,2.17-4.92,5.65l-1.17,4.17,105.89,36.27,13.59,4.65C691,109,693.21,118,691.16,125.21Z"/><path class="cls-1" d="M917.27,38.61,912,57.51l0,.07c-11.09,38.51-31.15,62.1-52.81,62.1H783.61l0-.12H753.86l-8,28.3H746l-9.46,33.81h-49.2l-5.5-6.56,1.55-1S687,171.65,692,165L727.46,39l-3.13-15.62H913.05c1.78,0,3.37,1.9,4.25,5.08A19.37,19.37,0,0,1,917.27,38.61Zm-54.9,18.9h-91l-1.8,6.41,0,.13-2.4,8.53-3.65,13,75.47.16c2.69-.43,7.75-1.93,13.11-8.16C857.81,70.83,861,62,862.37,57.51Z"/><path class="cls-1" d="M1117.49,38.6l-9.86,35-17.12,60.8-4.44,15.79-8.86,31.47h-49.09l-5.63-6.56,1.55-1s3.75-2.52,8.84-9.34l4.56-16.18,8.15-29H954.08l-17.49,62.12H887.5l-5.5-6.56,1.55-1s3.65-2.44,8.63-9.06L927.67,39l-3.14-15.62h188.74c1.77,0,3.36,1.9,4.25,5.08A19.37,19.37,0,0,1,1117.49,38.6Zm-55.18,19.81c-.15-.56-.44-.91-.76-.91h-90l-7.91,28.08,91.46.19,7.19-25.53A3.55,3.55,0,0,0,1062.31,58.41Z"/><path class="cls-2" d="M107.2,1.06c5.77-2.39,25,0,25,0a27.2,27.2,0,0,1,19.23,8l44.43,44.43a27.2,27.2,0,0,1,8,19.23s2.41,19.43,0,25.26a.32.32,0,0,1-.14.14c-5.77,2.39-25,0-25,0a27.2,27.2,0,0,1-19.23-8L115,45.7a27.2,27.2,0,0,1-8-19.23S104.64,7,107.06,1.2A.32.32,0,0,1,107.2,1.06Z"/><path class="cls-2" d="M1.34,106.92c5.77-2.39,25,0,25,0a27.2,27.2,0,0,1,19.23,8L90,159.31a27.2,27.2,0,0,1,8,19.23s2.42,19.43,0,25.27a.32.32,0,0,1-.14.14c-5.77,2.39-18.73,0-25,0a27.2,27.2,0,0,1-19.23-8L9.17,151.55a27.2,27.2,0,0,1-8-19.23s-2.41-19.43,0-25.26A.32.32,0,0,1,1.34,106.92Z"/><path class="cls-2" d="M204,107.2c2.39,5.77,0,25,0,25a27.2,27.2,0,0,1-8,19.23l-44.43,44.43a27.2,27.2,0,0,1-19.23,8s-19.43,2.41-25.26,0a.32.32,0,0,1-.14-.14c-2.39-5.77,0-25,0-25a27.2,27.2,0,0,1,8-19.23L159.31,115a27.2,27.2,0,0,1,19.23-8s19.43-2.42,25.27,0A.32.32,0,0,1,204,107.2Z"/><path class="cls-2" d="M98.09,1.34c2.39,5.77,0,25,0,25a27.2,27.2,0,0,1-8,19.23L45.7,90a27.2,27.2,0,0,1-19.23,8S7,100.37,1.2,98a.32.32,0,0,1-.14-.14c-2.39-5.77,0-25,0-25A27.2,27.2,0,0,1,9,53.6L53.46,9.17a27.2,27.2,0,0,1,19.23-8S92.12-1.21,98,1.2A.32.32,0,0,1,98.09,1.34Z"/></svg>